<svg xmlns="http://www.w3.org/2000/svg" viewBox="0 0 407.3 160.8">
    <defs>
        <style>.cls-1{fill:#01d277}</style>
    </defs>
    <path class="cls-1"
          d="M50.4 102.5h7V74.7H66v-6.9H41.7v7h8.7v27.7zM88.5 102.5h7V67.8h-7v13.9H78.1v-14h-6.9v34.8h7v-14h10.3v14zM121.3 95.5h-13v-7h11v-6.8h-11v-7h12.4v-7h-19.4v34.8h20v-7zM157.8 82.5L144 67.3h-2.2v35.2h7V83.2l8.9 9.3 8.9-9.3v19.3h7V67.3h-2.2l-13.7 15.2z"/>
    <path class="cls-1"
          d="M3309.1 1842c-23.9 0-23.9 35.7 0 35.7s23.9-35.8 0-35.8zm0 28.5c-13.9 0-13.9-21.4 0-21.4s13.9 21.4 0 21.4z"
          transform="translate(-3112 -1774.7)"/>
    <path class="cls-1"
          d="M254.5 67.8h6.9v34.7h-6.9zM274.2 95.6v-7h11.1v-6.9h-11.1v-7h12.4v-6.9h-19.4v34.7h20v-6.9h-13z"/>
    <path class="cls-1"
          d="M3429.5 1843H3419v34.6h10.4c23 0 23-34.7 0-34.7zm0 27.7h-3.4v-20.8h3.4c13.5 0 13.5 20.8 0 20.8z"
          transform="translate(-3112 -1774.7)"/>
    <path class="cls-1"
          d="M3472.7 1860.2c2.2-1.5 3.1-4.2 3.2-6.8.1-6.1-3.7-10.5-9.9-10.5h-13.7v34.7h13.7a10.3 10.3 0 0 0 10.2-10.4 8.4 8.4 0 0 0-3.5-7zm-13.4-10.4h6.2a3.5 3.5 0 0 1 0 7h-6.2v-7zm6.2 20.9h-6.2v-7h6.2a3.4 3.4 0 0 1 3.5 3.5 3.5 3.5 0 0 1-3.5 3.5z"
          transform="translate(-3112 -1774.7)"/>
    <path class="cls-1" d="M233.1 86.6L224 67.8h-8l16.4 35.5h1.5l16.4-35.5h-8L233 86.6z"/>
    <path class="cls-1"
          d="M3494.8 1921c14.6 0 24.5-10 24.5-24.5v-97.3c0-14.6-10-24.5-24.5-24.5h-358.4a23.2 23.2 0 0 0-24.5 24.5v136.3l12.6-14.6v-121.7a12 12 0 0 1 12-12h358.3a12 12 0 0 1 11.9 12v97.3a12 12 0 0 1-12 11.9H3155l-12.6 12.5z"
          transform="translate(-3112 -1774.7)"/>
    <path class="cls-1"
          d="M3154.3 1827.5v-15h5.9c5.8 0 5.8 9.3 0 9.3h-2.9v5.7h-3zm5.7-8.6c2 0 2-3.4 0-3.4h-2.7v3.4h2.6zM3176 1812.3c10.4 0 10.4 15.4 0 15.4s-10.3-15.4 0-15.4zm0 3c-6 0-6 9.3 0 9.3s6-9.3 0-9.3zM3193.1 1827.8l-6.1-15.3h3.3l3 7.7 3-7.5h.1l3 7.5 3-7.7h3.4l-6.2 15.3h-.5l-2.8-6.7-2.7 6.7h-.5zM3209.5 1827.5v-15h7.5v3h-4.5v3h4v3h-4v3h4.8v3h-7.8zM3229.5 1827.5l-3-5.7h-1.5v5.7h-3v-15h6c5.3 0 5.8 7.6 1.4 8.8l3.5 6.2h-3.4zm-4.5-8.6h2.6c2 0 2-3.4 0-3.4h-2.6v3.4zM3236.8 1827.5v-15h7.5v3h-4.5v3h4v3h-4v3h4.7v3h-7.7zM3253.7 1827.5h-4.5v-15h4.5c10 0 10 15 0 15zm-1.5-12v9h1.5c5.9 0 5.9-9 0-9h-1.5zM3291.9 1820.8l-5.2-8.3h3.6l3 5.2 3.1-5.2h3.7l-5.2 8.3v6.7h-3v-6.7zM3282.6 1820.2a3.7 3.7 0 0 0 1.4-3 4.1 4.1 0 0 0-4.3-4.6h-6v15h6a4.5 4.5 0 0 0 4.4-4.5 3.6 3.6 0 0 0-1.5-3zm-5.8-4.5h2.7a1.5 1.5 0 0 1 0 3h-2.7v-3zm2.7 9h-2.7v-3h2.7a1.5 1.5 0 0 1 1.5 1.5 1.5 1.5 0 0 1-1.6 1.5z"
          transform="translate(-3112 -1774.7)"/>
</svg>